0
SECTION
2
HEADER
9
$ACADVER
1
AC1006
9
$INSBASE
10
0.0
20
0.0
30
0.0
9
$EXTMIN
10
0.0
20
0.0
9
$EXTMAX
10
0.0
20
0.0
0
ENDSEC
0
SECTION
2
TABLES
0
TABLE
2
LTYPE
70
1
0
LTYPE
2
CONTINUOUS
70
64
3
Solid line
72
65
73
0
40
0.0
0
ENDTAB
0
TABLE
2
LAYER
70
4
0
LAYER
2
PYDXF
70
64
62
7
6
continuous
0
LAYER
2
TEXT
70
64
62
2
6
continuous
0
LAYER
2
CUTS
70
64
62
0
6
continuous
0
LAYER
2
CONSTRUCTION
70
64
62
1
6
continuous
0
ENDTAB
0
TABLE
2
STYLE
70
1
0
STYLE
2
STANDARD
70
0
40
0
41
40
50
50
71
0
42
1
3
ARIAL.TTF
4

0
ENDTAB
0
TABLE
2
VIEW
70
0
0
ENDTAB
0
ENDSEC
0
SECTION
2
BLOCKS
0
ENDSEC
0
SECTION
2
ENTITIES
0
LINE
8
CONSTRUCTION
10
0
20
106.0
11
100.0
21
106.0
0
LINE
8
CONSTRUCTION
10
100.0
20
106.0
11
100.0
21
206.0
0
LINE
8
CONSTRUCTION
10
0
20
106.0
11
0
21
206.0
0
LINE
8
CONSTRUCTION
10
0
20
206.0
11
100.0
21
206.0
0
LINE
8
CUTS
10
0
20
106.0
11
100.0
21
106.0
0
CIRCLE
8
CUTS
10
25.0
20
109.0
40
1.5
0
LINE
8
CUTS
10
10.0
20
107.5
30
0
11
19.0
21
107.5
31
0
0
LINE
8
CUTS
10
19.0
20
107.5
30
0
11
19.0
21
110.5
31
0
0
LINE
8
CUTS
10
19.0
20
110.5
30
0
11
10.0
21
110.5
31
0
0
LINE
8
CUTS
10
10.0
20
110.5
30
0
11
10.0
21
107.5
31
0
0
LINE
8
CUTS
10
31.0
20
107.5
30
0
11
40.0
21
107.5
31
0
0
LINE
8
CUTS
10
40.0
20
107.5
30
0
11
40.0
21
110.5
31
0
0
LINE
8
CUTS
10
40.0
20
110.5
30
0
11
31.0
21
110.5
31
0
0
LINE
8
CUTS
10
31.0
20
110.5
30
0
11
31.0
21
107.5
31
0
0
CIRCLE
8
CUTS
10
75.0
20
109.0
40
1.5
0
LINE
8
CUTS
10
60.0
20
107.5
30
0
11
69.0
21
107.5
31
0
0
LINE
8
CUTS
10
69.0
20
107.5
30
0
11
69.0
21
110.5
31
0
0
LINE
8
CUTS
10
69.0
20
110.5
30
0
11
60.0
21
110.5
31
0
0
LINE
8
CUTS
10
60.0
20
110.5
30
0
11
60.0
21
107.5
31
0
0
LINE
8
CUTS
10
81.0
20
107.5
30
0
11
90.0
21
107.5
31
0
0
LINE
8
CUTS
10
90.0
20
107.5
30
0
11
90.0
21
110.5
31
0
0
LINE
8
CUTS
10
90.0
20
110.5
30
0
11
81.0
21
110.5
31
0
0
LINE
8
CUTS
10
81.0
20
110.5
30
0
11
81.0
21
107.5
31
0
0
LINE
8
CUTS
10
100.0
20
106.0
11
100.0
21
206.0
0
CIRCLE
8
CUTS
10
97.0
20
131.0
40
1.5
0
LINE
8
CUTS
10
95.5
20
116.0
30
0
11
98.5
21
116.0
31
0
0
LINE
8
CUTS
10
98.5
20
116.0
30
0
11
98.5
21
125.0
31
0
0
LINE
8
CUTS
10
98.5
20
125.0
30
0
11
95.5
21
125.0
31
0
0
LINE
8
CUTS
10
95.5
20
125.0
30
0
11
95.5
21
116.0
31
0
0
LINE
8
CUTS
10
95.5
20
137.0
30
0
11
98.5
21
137.0
31
0
0
LINE
8
CUTS
10
98.5
20
137.0
30
0
11
98.5
21
146.0
31
0
0
LINE
8
CUTS
10
98.5
20
146.0
30
0
11
95.5
21
146.0
31
0
0
LINE
8
CUTS
10
95.5
20
146.0
30
0
11
95.5
21
137.0
31
0
0
CIRCLE
8
CUTS
10
97.0
20
181.0
40
1.5
0
LINE
8
CUTS
10
95.5
20
166.0
30
0
11
98.5
21
166.0
31
0
0
LINE
8
CUTS
10
98.5
20
166.0
30
0
11
98.5
21
175.0
31
0
0
LINE
8
CUTS
10
98.5
20
175.0
30
0
11
95.5
21
175.0
31
0
0
LINE
8
CUTS
10
95.5
20
175.0
30
0
11
95.5
21
166.0
31
0
0
LINE
8
CUTS
10
95.5
20
187.0
30
0
11
98.5
21
187.0
31
0
0
LINE
8
CUTS
10
98.5
20
187.0
30
0
11
98.5
21
196.0
31
0
0
LINE
8
CUTS
10
98.5
20
196.0
30
0
11
95.5
21
196.0
31
0
0
LINE
8
CUTS
10
95.5
20
196.0
30
0
11
95.5
21
187.0
31
0
0
LINE
8
CUTS
10
0
20
206.0
11
100.0
21
206.0
0
CIRCLE
8
CUTS
10
25.0
20
203.0
40
1.5
0
LINE
8
CUTS
10
10.0
20
201.5
30
0
11
19.0
21
201.5
31
0
0
LINE
8
CUTS
10
19.0
20
201.5
30
0
11
19.0
21
204.5
31
0
0
LINE
8
CUTS
10
19.0
20
204.5
30
0
11
10.0
21
204.5
31
0
0
LINE
8
CUTS
10
10.0
20
204.5
30
0
11
10.0
21
201.5
31
0
0
LINE
8
CUTS
10
31.0
20
201.5
30
0
11
40.0
21
201.5
31
0
0
LINE
8
CUTS
10
40.0
20
201.5
30
0
11
40.0
21
204.5
31
0
0
LINE
8
CUTS
10
40.0
20
204.5
30
0
11
31.0
21
204.5
31
0
0
LINE
8
CUTS
10
31.0
20
204.5
30
0
11
31.0
21
201.5
31
0
0
CIRCLE
8
CUTS
10
75.0
20
203.0
40
1.5
0
LINE
8
CUTS
10
60.0
20
201.5
30
0
11
69.0
21
201.5
31
0
0
LINE
8
CUTS
10
69.0
20
201.5
30
0
11
69.0
21
204.5
31
0
0
LINE
8
CUTS
10
69.0
20
204.5
30
0
11
60.0
21
204.5
31
0
0
LINE
8
CUTS
10
60.0
20
204.5
30
0
11
60.0
21
201.5
31
0
0
LINE
8
CUTS
10
81.0
20
201.5
30
0
11
90.0
21
201.5
31
0
0
LINE
8
CUTS
10
90.0
20
201.5
30
0
11
90.0
21
204.5
31
0
0
LINE
8
CUTS
10
90.0
20
204.5
30
0
11
81.0
21
204.5
31
0
0
LINE
8
CUTS
10
81.0
20
204.5
30
0
11
81.0
21
201.5
31
0
0
LINE
8
CUTS
10
0
20
106.0
11
0
21
206.0
0
CIRCLE
8
CUTS
10
3.0
20
131.0
40
1.5
0
LINE
8
CUTS
10
1.5
20
116.0
30
0
11
4.5
21
116.0
31
0
0
LINE
8
CUTS
10
4.5
20
116.0
30
0
11
4.5
21
125.0
31
0
0
LINE
8
CUTS
10
4.5
20
125.0
30
0
11
1.5
21
125.0
31
0
0
LINE
8
CUTS
10
1.5
20
125.0
30
0
11
1.5
21
116.0
31
0
0
LINE
8
CUTS
10
1.5
20
137.0
30
0
11
4.5
21
137.0
31
0
0
LINE
8
CUTS
10
4.5
20
137.0
30
0
11
4.5
21
146.0
31
0
0
LINE
8
CUTS
10
4.5
20
146.0
30
0
11
1.5
21
146.0
31
0
0
LINE
8
CUTS
10
1.5
20
146.0
30
0
11
1.5
21
137.0
31
0
0
CIRCLE
8
CUTS
10
3.0
20
181.0
40
1.5
0
LINE
8
CUTS
10
1.5
20
166.0
30
0
11
4.5
21
166.0
31
0
0
LINE
8
CUTS
10
4.5
20
166.0
30
0
11
4.5
21
175.0
31
0
0
LINE
8
CUTS
10
4.5
20
175.0
30
0
11
1.5
21
175.0
31
0
0
LINE
8
CUTS
10
1.5
20
175.0
30
0
11
1.5
21
166.0
31
0
0
LINE
8
CUTS
10
1.5
20
187.0
30
0
11
4.5
21
187.0
31
0
0
LINE
8
CUTS
10
4.5
20
187.0
30
0
11
4.5
21
196.0
31
0
0
LINE
8
CUTS
10
4.5
20
196.0
30
0
11
1.5
21
196.0
31
0
0
LINE
8
CUTS
10
1.5
20
196.0
30
0
11
1.5
21
187.0
31
0
0
TEXT
8
TEXT
10
50.0
20
156.0
30
0
40
5
1
top
0
LINE
8
CONSTRUCTION
10
106.0
20
106.0
11
206.0
21
106.0
0
LINE
8
CONSTRUCTION
10
206.0
20
106.0
11
206.0
21
206.0
0
LINE
8
CONSTRUCTION
10
106.0
20
106.0
11
106.0
21
206.0
0
LINE
8
CONSTRUCTION
10
106.0
20
206.0
11
206.0
21
206.0
0
LINE
8
CUTS
10
109.0
20
106.0
11
203.0
21
106.0
0
CIRCLE
8
CUTS
10
131.0
20
109.0
40
1.5
0
LINE
8
CUTS
10
116.0
20
107.5
30
0
11
125.0
21
107.5
31
0
0
LINE
8
CUTS
10
125.0
20
107.5
30
0
11
125.0
21
110.5
31
0
0
LINE
8
CUTS
10
125.0
20
110.5
30
0
11
116.0
21
110.5
31
0
0
LINE
8
CUTS
10
116.0
20
110.5
30
0
11
116.0
21
107.5
31
0
0
LINE
8
CUTS
10
137.0
20
107.5
30
0
11
146.0
21
107.5
31
0
0
LINE
8
CUTS
10
146.0
20
107.5
30
0
11
146.0
21
110.5
31
0
0
LINE
8
CUTS
10
146.0
20
110.5
30
0
11
137.0
21
110.5
31
0
0
LINE
8
CUTS
10
137.0
20
110.5
30
0
11
137.0
21
107.5
31
0
0
CIRCLE
8
CUTS
10
181.0
20
109.0
40
1.5
0
LINE
8
CUTS
10
166.0
20
107.5
30
0
11
175.0
21
107.5
31
0
0
LINE
8
CUTS
10
175.0
20
107.5
30
0
11
175.0
21
110.5
31
0
0
LINE
8
CUTS
10
175.0
20
110.5
30
0
11
166.0
21
110.5
31
0
0
LINE
8
CUTS
10
166.0
20
110.5
30
0
11
166.0
21
107.5
31
0
0
LINE
8
CUTS
10
187.0
20
107.5
30
0
11
196.0
21
107.5
31
0
0
LINE
8
CUTS
10
196.0
20
107.5
30
0
11
196.0
21
110.5
31
0
0
LINE
8
CUTS
10
196.0
20
110.5
30
0
11
187.0
21
110.5
31
0
0
LINE
8
CUTS
10
187.0
20
110.5
30
0
11
187.0
21
107.5
31
0
0
LINE
8
CUTS
10
203.0
20
106.0
11
203.0
21
116.0
0
LINE
8
CUTS
10
203.0
20
146.0
11
203.0
21
166.0
0
LINE
8
CUTS
10
203.0
20
116.0
11
206.0
21
116.0
0
LINE
8
CUTS
10
206.0
20
116.0
11
206.0
21
125.0
0
LINE
8
CUTS
10
203.0
20
125.0
11
206.0
21
125.0
0
LINE
8
CUTS
10
203.0
20
146.0
11
206.0
21
146.0
0
LINE
8
CUTS
10
206.0
20
146.0
11
206.0
21
137.0
0
LINE
8
CUTS
10
203.0
20
137.0
11
206.0
21
137.0
0
LINE
8
CUTS
10
203.0
20
125.0
11
203.0
21
129.5
0
LINE
8
CUTS
10
203.0
20
129.5
11
195.5
21
129.5
0
LINE
8
CUTS
10
195.5
20
129.5
11
195.5
21
128.45
0
LINE
8
CUTS
10
195.5
20
128.45
11
192.5
21
128.45
0
LINE
8
CUTS
10
192.5
20
128.45
11
192.5
21
129.5
0
LINE
8
CUTS
10
192.5
20
129.5
11
188.0
21
129.5
0
LINE
8
CUTS
10
188.0
20
129.5
11
188.0
21
132.5
0
LINE
8
CUTS
10
195.5
20
132.5
11
195.5
21
133.55
0
LINE
8
CUTS
10
195.5
20
133.55
11
192.5
21
133.55
0
LINE
8
CUTS
10
192.5
20
133.55
11
192.5
21
132.5
0
LINE
8
CUTS
10
192.5
20
132.5
11
188.0
21
132.5
0
LINE
8
CUTS
10
195.5
20
132.5
11
203.0
21
132.5
0
LINE
8
CUTS
10
203.0
20
132.5
11
203.0
21
137.0
0
LINE
8
CUTS
10
203.0
20
166.0
11
206.0
21
166.0
0
LINE
8
CUTS
10
206.0
20
166.0
11
206.0
21
175.0
0
LINE
8
CUTS
10
203.0
20
175.0
11
206.0
21
175.0
0
LINE
8
CUTS
10
203.0
20
196.0
11
206.0
21
196.0
0
LINE
8
CUTS
10
206.0
20
196.0
11
206.0
21
187.0
0
LINE
8
CUTS
10
203.0
20
187.0
11
206.0
21
187.0
0
LINE
8
CUTS
10
203.0
20
175.0
11
203.0
21
179.5
0
LINE
8
CUTS
10
203.0
20
179.5
11
195.5
21
179.5
0
LINE
8
CUTS
10
195.5
20
179.5
11
195.5
21
178.45
0
LINE
8
CUTS
10
195.5
20
178.45
11
192.5
21
178.45
0
LINE
8
CUTS
10
192.5
20
178.45
11
192.5
21
179.5
0
LINE
8
CUTS
10
192.5
20
179.5
11
188.0
21
179.5
0
LINE
8
CUTS
10
188.0
20
179.5
11
188.0
21
182.5
0
LINE
8
CUTS
10
195.5
20
182.5
11
195.5
21
183.55
0
LINE
8
CUTS
10
195.5
20
183.55
11
192.5
21
183.55
0
LINE
8
CUTS
10
192.5
20
183.55
11
192.5
21
182.5
0
LINE
8
CUTS
10
192.5
20
182.5
11
188.0
21
182.5
0
LINE
8
CUTS
10
195.5
20
182.5
11
203.0
21
182.5
0
LINE
8
CUTS
10
203.0
20
182.5
11
203.0
21
187.0
0
LINE
8
CUTS
10
203.0
20
196.0
11
203.0
21
206.0
0
LINE
8
CUTS
10
109.0
20
206.0
11
203.0
21
206.0
0
CIRCLE
8
CUTS
10
131.0
20
203.0
40
1.5
0
LINE
8
CUTS
10
116.0
20
201.5
30
0
11
125.0
21
201.5
31
0
0
LINE
8
CUTS
10
125.0
20
201.5
30
0
11
125.0
21
204.5
31
0
0
LINE
8
CUTS
10
125.0
20
204.5
30
0
11
116.0
21
204.5
31
0
0
LINE
8
CUTS
10
116.0
20
204.5
30
0
11
116.0
21
201.5
31
0
0
LINE
8
CUTS
10
137.0
20
201.5
30
0
11
146.0
21
201.5
31
0
0
LINE
8
CUTS
10
146.0
20
201.5
30
0
11
146.0
21
204.5
31
0
0
LINE
8
CUTS
10
146.0
20
204.5
30
0
11
137.0
21
204.5
31
0
0
LINE
8
CUTS
10
137.0
20
204.5
30
0
11
137.0
21
201.5
31
0
0
CIRCLE
8
CUTS
10
181.0
20
203.0
40
1.5
0
LINE
8
CUTS
10
166.0
20
201.5
30
0
11
175.0
21
201.5
31
0
0
LINE
8
CUTS
10
175.0
20
201.5
30
0
11
175.0
21
204.5
31
0
0
LINE
8
CUTS
10
175.0
20
204.5
30
0
11
166.0
21
204.5
31
0
0
LINE
8
CUTS
10
166.0
20
204.5
30
0
11
166.0
21
201.5
31
0
0
LINE
8
CUTS
10
187.0
20
201.5
30
0
11
196.0
21
201.5
31
0
0
LINE
8
CUTS
10
196.0
20
201.5
30
0
11
196.0
21
204.5
31
0
0
LINE
8
CUTS
10
196.0
20
204.5
30
0
11
187.0
21
204.5
31
0
0
LINE
8
CUTS
10
187.0
20
204.5
30
0
11
187.0
21
201.5
31
0
0
LINE
8
CUTS
10
109.0
20
106.0
11
109.0
21
116.0
0
LINE
8
CUTS
10
109.0
20
146.0
11
109.0
21
166.0
0
LINE
8
CUTS
10
109.0
20
116.0
11
106.0
21
116.0
0
LINE
8
CUTS
10
106.0
20
116.0
11
106.0
21
125.0
0
LINE
8
CUTS
10
109.0
20
125.0
11
106.0
21
125.0
0
LINE
8
CUTS
10
109.0
20
146.0
11
106.0
21
146.0
0
LINE
8
CUTS
10
106.0
20
146.0
11
106.0
21
137.0
0
LINE
8
CUTS
10
109.0
20
137.0
11
106.0
21
137.0
0
LINE
8
CUTS
10
109.0
20
125.0
11
109.0
21
129.5
0
LINE
8
CUTS
10
109.0
20
129.5
11
116.5
21
129.5
0
LINE
8
CUTS
10
116.5
20
129.5
11
116.5
21
128.45
0
LINE
8
CUTS
10
116.5
20
128.45
11
119.5
21
128.45
0
LINE
8
CUTS
10
119.5
20
128.45
11
119.5
21
129.5
0
LINE
8
CUTS
10
119.5
20
129.5
11
124.0
21
129.5
0
LINE
8
CUTS
10
124.0
20
129.5
11
124.0
21
132.5
0
LINE
8
CUTS
10
116.5
20
132.5
11
116.5
21
133.55
0
LINE
8
CUTS
10
116.5
20
133.55
11
119.5
21
133.55
0
LINE
8
CUTS
10
119.5
20
133.55
11
119.5
21
132.5
0
LINE
8
CUTS
10
119.5
20
132.5
11
124.0
21
132.5
0
LINE
8
CUTS
10
116.5
20
132.5
11
109.0
21
132.5
0
LINE
8
CUTS
10
109.0
20
132.5
11
109.0
21
137.0
0
LINE
8
CUTS
10
109.0
20
166.0
11
106.0
21
166.0
0
LINE
8
CUTS
10
106.0
20
166.0
11
106.0
21
175.0
0
LINE
8
CUTS
10
109.0
20
175.0
11
106.0
21
175.0
0
LINE
8
CUTS
10
109.0
20
196.0
11
106.0
21
196.0
0
LINE
8
CUTS
10
106.0
20
196.0
11
106.0
21
187.0
0
LINE
8
CUTS
10
109.0
20
187.0
11
106.0
21
187.0
0
LINE
8
CUTS
10
109.0
20
175.0
11
109.0
21
179.5
0
LINE
8
CUTS
10
109.0
20
179.5
11
116.5
21
179.5
0
LINE
8
CUTS
10
116.5
20
179.5
11
116.5
21
178.45
0
LINE
8
CUTS
10
116.5
20
178.45
11
119.5
21
178.45
0
LINE
8
CUTS
10
119.5
20
178.45
11
119.5
21
179.5
0
LINE
8
CUTS
10
119.5
20
179.5
11
124.0
21
179.5
0
LINE
8
CUTS
10
124.0
20
179.5
11
124.0
21
182.5
0
LINE
8
CUTS
10
116.5
20
182.5
11
116.5
21
183.55
0
LINE
8
CUTS
10
116.5
20
183.55
11
119.5
21
183.55
0
LINE
8
CUTS
10
119.5
20
183.55
11
119.5
21
182.5
0
LINE
8
CUTS
10
119.5
20
182.5
11
124.0
21
182.5
0
LINE
8
CUTS
10
116.5
20
182.5
11
109.0
21
182.5
0
LINE
8
CUTS
10
109.0
20
182.5
11
109.0
21
187.0
0
LINE
8
CUTS
10
109.0
20
196.0
11
109.0
21
206.0
0
TEXT
8
TEXT
10
156.0
20
156.0
30
0
40
5
1
left
0
LINE
8
CONSTRUCTION
10
212.0
20
106.0
11
312.0
21
106.0
0
LINE
8
CONSTRUCTION
10
312.0
20
106.0
11
312.0
21
206.0
0
LINE
8
CONSTRUCTION
10
212.0
20
106.0
11
212.0
21
206.0
0
LINE
8
CONSTRUCTION
10
212.0
20
206.0
11
312.0
21
206.0
0
LINE
8
CUTS
10
212.0
20
106.0
11
312.0
21
106.0
0
CIRCLE
8
CUTS
10
237.0
20
109.0
40
1.5
0
LINE
8
CUTS
10
222.0
20
107.5
30
0
11
231.0
21
107.5
31
0
0
LINE
8
CUTS
10
231.0
20
107.5
30
0
11
231.0
21
110.5
31
0
0
LINE
8
CUTS
10
231.0
20
110.5
30
0
11
222.0
21
110.5
31
0
0
LINE
8
CUTS
10
222.0
20
110.5
30
0
11
222.0
21
107.5
31
0
0
LINE
8
CUTS
10
243.0
20
107.5
30
0
11
252.0
21
107.5
31
0
0
LINE
8
CUTS
10
252.0
20
107.5
30
0
11
252.0
21
110.5
31
0
0
LINE
8
CUTS
10
252.0
20
110.5
30
0
11
243.0
21
110.5
31
0
0
LINE
8
CUTS
10
243.0
20
110.5
30
0
11
243.0
21
107.5
31
0
0
CIRCLE
8
CUTS
10
287.0
20
109.0
40
1.5
0
LINE
8
CUTS
10
272.0
20
107.5
30
0
11
281.0
21
107.5
31
0
0
LINE
8
CUTS
10
281.0
20
107.5
30
0
11
281.0
21
110.5
31
0
0
LINE
8
CUTS
10
281.0
20
110.5
30
0
11
272.0
21
110.5
31
0
0
LINE
8
CUTS
10
272.0
20
110.5
30
0
11
272.0
21
107.5
31
0
0
LINE
8
CUTS
10
293.0
20
107.5
30
0
11
302.0
21
107.5
31
0
0
LINE
8
CUTS
10
302.0
20
107.5
30
0
11
302.0
21
110.5
31
0
0
LINE
8
CUTS
10
302.0
20
110.5
30
0
11
293.0
21
110.5
31
0
0
LINE
8
CUTS
10
293.0
20
110.5
30
0
11
293.0
21
107.5
31
0
0
LINE
8
CUTS
10
312.0
20
106.0
11
312.0
21
206.0
0
CIRCLE
8
CUTS
10
309.0
20
131.0
40
1.5
0
LINE
8
CUTS
10
307.5
20
116.0
30
0
11
310.5
21
116.0
31
0
0
LINE
8
CUTS
10
310.5
20
116.0
30
0
11
310.5
21
125.0
31
0
0
LINE
8
CUTS
10
310.5
20
125.0
30
0
11
307.5
21
125.0
31
0
0
LINE
8
CUTS
10
307.5
20
125.0
30
0
11
307.5
21
116.0
31
0
0
LINE
8
CUTS
10
307.5
20
137.0
30
0
11
310.5
21
137.0
31
0
0
LINE
8
CUTS
10
310.5
20
137.0
30
0
11
310.5
21
146.0
31
0
0
LINE
8
CUTS
10
310.5
20
146.0
30
0
11
307.5
21
146.0
31
0
0
LINE
8
CUTS
10
307.5
20
146.0
30
0
11
307.5
21
137.0
31
0
0
CIRCLE
8
CUTS
10
309.0
20
181.0
40
1.5
0
LINE
8
CUTS
10
307.5
20
166.0
30
0
11
310.5
21
166.0
31
0
0
LINE
8
CUTS
10
310.5
20
166.0
30
0
11
310.5
21
175.0
31
0
0
LINE
8
CUTS
10
310.5
20
175.0
30
0
11
307.5
21
175.0
31
0
0
LINE
8
CUTS
10
307.5
20
175.0
30
0
11
307.5
21
166.0
31
0
0
LINE
8
CUTS
10
307.5
20
187.0
30
0
11
310.5
21
187.0
31
0
0
LINE
8
CUTS
10
310.5
20
187.0
30
0
11
310.5
21
196.0
31
0
0
LINE
8
CUTS
10
310.5
20
196.0
30
0
11
307.5
21
196.0
31
0
0
LINE
8
CUTS
10
307.5
20
196.0
30
0
11
307.5
21
187.0
31
0
0
LINE
8
CUTS
10
212.0
20
206.0
11
312.0
21
206.0
0
CIRCLE
8
CUTS
10
237.0
20
203.0
40
1.5
0
LINE
8
CUTS
10
222.0
20
201.5
30
0
11
231.0
21
201.5
31
0
0
LINE
8
CUTS
10
231.0
20
201.5
30
0
11
231.0
21
204.5
31
0
0
LINE
8
CUTS
10
231.0
20
204.5
30
0
11
222.0
21
204.5
31
0
0
LINE
8
CUTS
10
222.0
20
204.5
30
0
11
222.0
21
201.5
31
0
0
LINE
8
CUTS
10
243.0
20
201.5
30
0
11
252.0
21
201.5
31
0
0
LINE
8
CUTS
10
252.0
20
201.5
30
0
11
252.0
21
204.5
31
0
0
LINE
8
CUTS
10
252.0
20
204.5
30
0
11
243.0
21
204.5
31
0
0
LINE
8
CUTS
10
243.0
20
204.5
30
0
11
243.0
21
201.5
31
0
0
CIRCLE
8
CUTS
10
287.0
20
203.0
40
1.5
0
LINE
8
CUTS
10
272.0
20
201.5
30
0
11
281.0
21
201.5
31
0
0
LINE
8
CUTS
10
281.0
20
201.5
30
0
11
281.0
21
204.5
31
0
0
LINE
8
CUTS
10
281.0
20
204.5
30
0
11
272.0
21
204.5
31
0
0
LINE
8
CUTS
10
272.0
20
204.5
30
0
11
272.0
21
201.5
31
0
0
LINE
8
CUTS
10
293.0
20
201.5
30
0
11
302.0
21
201.5
31
0
0
LINE
8
CUTS
10
302.0
20
201.5
30
0
11
302.0
21
204.5
31
0
0
LINE
8
CUTS
10
302.0
20
204.5
30
0
11
293.0
21
204.5
31
0
0
LINE
8
CUTS
10
293.0
20
204.5
30
0
11
293.0
21
201.5
31
0
0
LINE
8
CUTS
10
212.0
20
106.0
11
212.0
21
206.0
0
CIRCLE
8
CUTS
10
215.0
20
131.0
40
1.5
0
LINE
8
CUTS
10
213.5
20
116.0
30
0
11
216.5
21
116.0
31
0
0
LINE
8
CUTS
10
216.5
20
116.0
30
0
11
216.5
21
125.0
31
0
0
LINE
8
CUTS
10
216.5
20
125.0
30
0
11
213.5
21
125.0
31
0
0
LINE
8
CUTS
10
213.5
20
125.0
30
0
11
213.5
21
116.0
31
0
0
LINE
8
CUTS
10
213.5
20
137.0
30
0
11
216.5
21
137.0
31
0
0
LINE
8
CUTS
10
216.5
20
137.0
30
0
11
216.5
21
146.0
31
0
0
LINE
8
CUTS
10
216.5
20
146.0
30
0
11
213.5
21
146.0
31
0
0
LINE
8
CUTS
10
213.5
20
146.0
30
0
11
213.5
21
137.0
31
0
0
CIRCLE
8
CUTS
10
215.0
20
181.0
40
1.5
0
LINE
8
CUTS
10
213.5
20
166.0
30
0
11
216.5
21
166.0
31
0
0
LINE
8
CUTS
10
216.5
20
166.0
30
0
11
216.5
21
175.0
31
0
0
LINE
8
CUTS
10
216.5
20
175.0
30
0
11
213.5
21
175.0
31
0
0
LINE
8
CUTS
10
213.5
20
175.0
30
0
11
213.5
21
166.0
31
0
0
LINE
8
CUTS
10
213.5
20
187.0
30
0
11
216.5
21
187.0
31
0
0
LINE
8
CUTS
10
216.5
20
187.0
30
0
11
216.5
21
196.0
31
0
0
LINE
8
CUTS
10
216.5
20
196.0
30
0
11
213.5
21
196.0
31
0
0
LINE
8
CUTS
10
213.5
20
196.0
30
0
11
213.5
21
187.0
31
0
0
TEXT
8
TEXT
10
262.0
20
156.0
30
0
40
5
1
bottom
0
LINE
8
CONSTRUCTION
10
318.0
20
106.0
11
418.0
21
106.0
0
LINE
8
CONSTRUCTION
10
418.0
20
106.0
11
418.0
21
206.0
0
LINE
8
CONSTRUCTION
10
318.0
20
106.0
11
318.0
21
206.0
0
LINE
8
CONSTRUCTION
10
318.0
20
206.0
11
418.0
21
206.0
0
LINE
8
CUTS
10
321.0
20
106.0
11
415.0
21
106.0
0
CIRCLE
8
CUTS
10
343.0
20
109.0
40
1.5
0
LINE
8
CUTS
10
328.0
20
107.5
30
0
11
337.0
21
107.5
31
0
0
LINE
8
CUTS
10
337.0
20
107.5
30
0
11
337.0
21
110.5
31
0
0
LINE
8
CUTS
10
337.0
20
110.5
30
0
11
328.0
21
110.5
31
0
0
LINE
8
CUTS
10
328.0
20
110.5
30
0
11
328.0
21
107.5
31
0
0
LINE
8
CUTS
10
349.0
20
107.5
30
0
11
358.0
21
107.5
31
0
0
LINE
8
CUTS
10
358.0
20
107.5
30
0
11
358.0
21
110.5
31
0
0
LINE
8
CUTS
10
358.0
20
110.5
30
0
11
349.0
21
110.5
31
0
0
LINE
8
CUTS
10
349.0
20
110.5
30
0
11
349.0
21
107.5
31
0
0
CIRCLE
8
CUTS
10
393.0
20
109.0
40
1.5
0
LINE
8
CUTS
10
378.0
20
107.5
30
0
11
387.0
21
107.5
31
0
0
LINE
8
CUTS
10
387.0
20
107.5
30
0
11
387.0
21
110.5
31
0
0
LINE
8
CUTS
10
387.0
20
110.5
30
0
11
378.0
21
110.5
31
0
0
LINE
8
CUTS
10
378.0
20
110.5
30
0
11
378.0
21
107.5
31
0
0
LINE
8
CUTS
10
399.0
20
107.5
30
0
11
408.0
21
107.5
31
0
0
LINE
8
CUTS
10
408.0
20
107.5
30
0
11
408.0
21
110.5
31
0
0
LINE
8
CUTS
10
408.0
20
110.5
30
0
11
399.0
21
110.5
31
0
0
LINE
8
CUTS
10
399.0
20
110.5
30
0
11
399.0
21
107.5
31
0
0
LINE
8
CUTS
10
415.0
20
106.0
11
415.0
21
116.0
0
LINE
8
CUTS
10
415.0
20
146.0
11
415.0
21
166.0
0
LINE
8
CUTS
10
415.0
20
116.0
11
418.0
21
116.0
0
LINE
8
CUTS
10
418.0
20
116.0
11
418.0
21
125.0
0
LINE
8
CUTS
10
415.0
20
125.0
11
418.0
21
125.0
0
LINE
8
CUTS
10
415.0
20
146.0
11
418.0
21
146.0
0
LINE
8
CUTS
10
418.0
20
146.0
11
418.0
21
137.0
0
LINE
8
CUTS
10
415.0
20
137.0
11
418.0
21
137.0
0
LINE
8
CUTS
10
415.0
20
125.0
11
415.0
21
129.5
0
LINE
8
CUTS
10
415.0
20
129.5
11
407.5
21
129.5
0
LINE
8
CUTS
10
407.5
20
129.5
11
407.5
21
128.45
0
LINE
8
CUTS
10
407.5
20
128.45
11
404.5
21
128.45
0
LINE
8
CUTS
10
404.5
20
128.45
11
404.5
21
129.5
0
LINE
8
CUTS
10
404.5
20
129.5
11
400.0
21
129.5
0
LINE
8
CUTS
10
400.0
20
129.5
11
400.0
21
132.5
0
LINE
8
CUTS
10
407.5
20
132.5
11
407.5
21
133.55
0
LINE
8
CUTS
10
407.5
20
133.55
11
404.5
21
133.55
0
LINE
8
CUTS
10
404.5
20
133.55
11
404.5
21
132.5
0
LINE
8
CUTS
10
404.5
20
132.5
11
400.0
21
132.5
0
LINE
8
CUTS
10
407.5
20
132.5
11
415.0
21
132.5
0
LINE
8
CUTS
10
415.0
20
132.5
11
415.0
21
137.0
0
LINE
8
CUTS
10
415.0
20
166.0
11
418.0
21
166.0
0
LINE
8
CUTS
10
418.0
20
166.0
11
418.0
21
175.0
0
LINE
8
CUTS
10
415.0
20
175.0
11
418.0
21
175.0
0
LINE
8
CUTS
10
415.0
20
196.0
11
418.0
21
196.0
0
LINE
8
CUTS
10
418.0
20
196.0
11
418.0
21
187.0
0
LINE
8
CUTS
10
415.0
20
187.0
11
418.0
21
187.0
0
LINE
8
CUTS
10
415.0
20
175.0
11
415.0
21
179.5
0
LINE
8
CUTS
10
415.0
20
179.5
11
407.5
21
179.5
0
LINE
8
CUTS
10
407.5
20
179.5
11
407.5
21
178.45
0
LINE
8
CUTS
10
407.5
20
178.45
11
404.5
21
178.45
0
LINE
8
CUTS
10
404.5
20
178.45
11
404.5
21
179.5
0
LINE
8
CUTS
10
404.5
20
179.5
11
400.0
21
179.5
0
LINE
8
CUTS
10
400.0
20
179.5
11
400.0
21
182.5
0
LINE
8
CUTS
10
407.5
20
182.5
11
407.5
21
183.55
0
LINE
8
CUTS
10
407.5
20
183.55
11
404.5
21
183.55
0
LINE
8
CUTS
10
404.5
20
183.55
11
404.5
21
182.5
0
LINE
8
CUTS
10
404.5
20
182.5
11
400.0
21
182.5
0
LINE
8
CUTS
10
407.5
20
182.5
11
415.0
21
182.5
0
LINE
8
CUTS
10
415.0
20
182.5
11
415.0
21
187.0
0
LINE
8
CUTS
10
415.0
20
196.0
11
415.0
21
206.0
0
LINE
8
CUTS
10
321.0
20
206.0
11
415.0
21
206.0
0
CIRCLE
8
CUTS
10
343.0
20
203.0
40
1.5
0
LINE
8
CUTS
10
328.0
20
201.5
30
0
11
337.0
21
201.5
31
0
0
LINE
8
CUTS
10
337.0
20
201.5
30
0
11
337.0
21
204.5
31
0
0
LINE
8
CUTS
10
337.0
20
204.5
30
0
11
328.0
21
204.5
31
0
0
LINE
8
CUTS
10
328.0
20
204.5
30
0
11
328.0
21
201.5
31
0
0
LINE
8
CUTS
10
349.0
20
201.5
30
0
11
358.0
21
201.5
31
0
0
LINE
8
CUTS
10
358.0
20
201.5
30
0
11
358.0
21
204.5
31
0
0
LINE
8
CUTS
10
358.0
20
204.5
30
0
11
349.0
21
204.5
31
0
0
LINE
8
CUTS
10
349.0
20
204.5
30
0
11
349.0
21
201.5
31
0
0
CIRCLE
8
CUTS
10
393.0
20
203.0
40
1.5
0
LINE
8
CUTS
10
378.0
20
201.5
30
0
11
387.0
21
201.5
31
0
0
LINE
8
CUTS
10
387.0
20
201.5
30
0
11
387.0
21
204.5
31
0
0
LINE
8
CUTS
10
387.0
20
204.5
30
0
11
378.0
21
204.5
31
0
0
LINE
8
CUTS
10
378.0
20
204.5
30
0
11
378.0
21
201.5
31
0
0
LINE
8
CUTS
10
399.0
20
201.5
30
0
11
408.0
21
201.5
31
0
0
LINE
8
CUTS
10
408.0
20
201.5
30
0
11
408.0
21
204.5
31
0
0
LINE
8
CUTS
10
408.0
20
204.5
30
0
11
399.0
21
204.5
31
0
0
LINE
8
CUTS
10
399.0
20
204.5
30
0
11
399.0
21
201.5
31
0
0
LINE
8
CUTS
10
321.0
20
106.0
11
321.0
21
116.0
0
LINE
8
CUTS
10
321.0
20
146.0
11
321.0
21
166.0
0
LINE
8
CUTS
10
321.0
20
116.0
11
318.0
21
116.0
0
LINE
8
CUTS
10
318.0
20
116.0
11
318.0
21
125.0
0
LINE
8
CUTS
10
321.0
20
125.0
11
318.0
21
125.0
0
LINE
8
CUTS
10
321.0
20
146.0
11
318.0
21
146.0
0
LINE
8
CUTS
10
318.0
20
146.0
11
318.0
21
137.0
0
LINE
8
CUTS
10
321.0
20
137.0
11
318.0
21
137.0
0
LINE
8
CUTS
10
321.0
20
125.0
11
321.0
21
129.5
0
LINE
8
CUTS
10
321.0
20
129.5
11
328.5
21
129.5
0
LINE
8
CUTS
10
328.5
20
129.5
11
328.5
21
128.45
0
LINE
8
CUTS
10
328.5
20
128.45
11
331.5
21
128.45
0
LINE
8
CUTS
10
331.5
20
128.45
11
331.5
21
129.5
0
LINE
8
CUTS
10
331.5
20
129.5
11
336.0
21
129.5
0
LINE
8
CUTS
10
336.0
20
129.5
11
336.0
21
132.5
0
LINE
8
CUTS
10
328.5
20
132.5
11
328.5
21
133.55
0
LINE
8
CUTS
10
328.5
20
133.55
11
331.5
21
133.55
0
LINE
8
CUTS
10
331.5
20
133.55
11
331.5
21
132.5
0
LINE
8
CUTS
10
331.5
20
132.5
11
336.0
21
132.5
0
LINE
8
CUTS
10
328.5
20
132.5
11
321.0
21
132.5
0
LINE
8
CUTS
10
321.0
20
132.5
11
321.0
21
137.0
0
LINE
8
CUTS
10
321.0
20
166.0
11
318.0
21
166.0
0
LINE
8
CUTS
10
318.0
20
166.0
11
318.0
21
175.0
0
LINE
8
CUTS
10
321.0
20
175.0
11
318.0
21
175.0
0
LINE
8
CUTS
10
321.0
20
196.0
11
318.0
21
196.0
0
LINE
8
CUTS
10
318.0
20
196.0
11
318.0
21
187.0
0
LINE
8
CUTS
10
321.0
20
187.0
11
318.0
21
187.0
0
LINE
8
CUTS
10
321.0
20
175.0
11
321.0
21
179.5
0
LINE
8
CUTS
10
321.0
20
179.5
11
328.5
21
179.5
0
LINE
8
CUTS
10
328.5
20
179.5
11
328.5
21
178.45
0
LINE
8
CUTS
10
328.5
20
178.45
11
331.5
21
178.45
0
LINE
8
CUTS
10
331.5
20
178.45
11
331.5
21
179.5
0
LINE
8
CUTS
10
331.5
20
179.5
11
336.0
21
179.5
0
LINE
8
CUTS
10
336.0
20
179.5
11
336.0
21
182.5
0
LINE
8
CUTS
10
328.5
20
182.5
11
328.5
21
183.55
0
LINE
8
CUTS
10
328.5
20
183.55
11
331.5
21
183.55
0
LINE
8
CUTS
10
331.5
20
183.55
11
331.5
21
182.5
0
LINE
8
CUTS
10
331.5
20
182.5
11
336.0
21
182.5
0
LINE
8
CUTS
10
328.5
20
182.5
11
321.0
21
182.5
0
LINE
8
CUTS
10
321.0
20
182.5
11
321.0
21
187.0
0
LINE
8
CUTS
10
321.0
20
196.0
11
321.0
21
206.0
0
TEXT
8
TEXT
10
368.0
20
156.0
30
0
40
5
1
right
0
LINE
8
CONSTRUCTION
10
212.0
20
0
11
312.0
21
0
0
LINE
8
CONSTRUCTION
10
312.0
20
0
11
312.0
21
100.0
0
LINE
8
CONSTRUCTION
10
212.0
20
0
11
212.0
21
100.0
0
LINE
8
CONSTRUCTION
10
212.0
20
100.0
11
312.0
21
100.0
0
LINE
8
CUTS
10
216.5
20
3.0
11
222.0
21
3.0
0
LINE
8
CUTS
10
252.0
20
3.0
11
272.0
21
3.0
0
LINE
8
CUTS
10
222.0
20
3.0
11
222.0
21
0.0
0
LINE
8
CUTS
10
222.0
20
0.0
11
231.0
21
0.0
0
LINE
8
CUTS
10
231.0
20
3.0
11
231.0
21
0.0
0
LINE
8
CUTS
10
243.0
20
3.0
11
243.0
21
0.0
0
LINE
8
CUTS
10
243.0
20
0.0
11
252.0
21
0.0
0
LINE
8
CUTS
10
252.0
20
3.0
11
252.0
21
0.0
0
LINE
8
CUTS
10
231.0
20
3.0
11
235.5
21
3.0
0
LINE
8
CUTS
10
235.5
20
3.0
11
235.5
21
10.5
0
LINE
8
CUTS
10
235.5
20
10.5
11
234.45
21
10.5
0
LINE
8
CUTS
10
234.45
20
10.5
11
234.45
21
13.5
0
LINE
8
CUTS
10
234.45
20
13.5
11
235.5
21
13.5
0
LINE
8
CUTS
10
235.5
20
13.5
11
235.5
21
18.0
0
LINE
8
CUTS
10
238.5
20
18.0
11
235.5
21
18.0
0
LINE
8
CUTS
10
238.5
20
13.5
11
238.5
21
18.0
0
LINE
8
CUTS
10
239.55
20
13.5
11
238.5
21
13.5
0
LINE
8
CUTS
10
239.55
20
10.5
11
239.55
21
13.5
0
LINE
8
CUTS
10
238.5
20
10.5
11
239.55
21
10.5
0
LINE
8
CUTS
10
238.5
20
10.5
11
238.5
21
3.0
0
LINE
8
CUTS
10
238.5
20
3.0
11
243.0
21
3.0
0
LINE
8
CUTS
10
272.0
20
3.0
11
272.0
21
0.0
0
LINE
8
CUTS
10
272.0
20
0.0
11
281.0
21
0.0
0
LINE
8
CUTS
10
281.0
20
3.0
11
281.0
21
0.0
0
LINE
8
CUTS
10
293.0
20
3.0
11
293.0
21
0.0
0
LINE
8
CUTS
10
293.0
20
0.0
11
302.0
21
0.0
0
LINE
8
CUTS
10
302.0
20
3.0
11
302.0
21
0.0
0
LINE
8
CUTS
10
281.0
20
3.0
11
285.5
21
3.0
0
LINE
8
CUTS
10
285.5
20
3.0
11
285.5
21
10.5
0
LINE
8
CUTS
10
285.5
20
10.5
11
284.45
21
10.5
0
LINE
8
CUTS
10
284.45
20
10.5
11
284.45
21
13.5
0
LINE
8
CUTS
10
284.45
20
13.5
11
285.5
21
13.5
0
LINE
8
CUTS
10
285.5
20
13.5
11
285.5
21
18.0
0
LINE
8
CUTS
10
288.5
20
18.0
11
285.5
21
18.0
0
LINE
8
CUTS
10
288.5
20
13.5
11
288.5
21
18.0
0
LINE
8
CUTS
10
289.55
20
13.5
11
288.5
21
13.5
0
LINE
8
CUTS
10
289.55
20
10.5
11
289.55
21
13.5
0
LINE
8
CUTS
10
288.5
20
10.5
11
289.55
21
10.5
0
LINE
8
CUTS
10
288.5
20
10.5
11
288.5
21
3.0
0
LINE
8
CUTS
10
288.5
20
3.0
11
293.0
21
3.0
0
LINE
8
CUTS
10
302.0
20
3.0
11
307.5
21
3.0
0
LINE
8
CUTS
10
307.5
20
3.0
11
307.5
21
10.0
0
LINE
8
CUTS
10
307.5
20
40.0
11
307.5
21
60.0
0
LINE
8
CUTS
10
307.5
20
10.0
11
310.5
21
10.0
0
LINE
8
CUTS
10
310.5
20
10.0
11
310.5
21
19.0
0
LINE
8
CUTS
10
307.5
20
19.0
11
310.5
21
19.0
0
LINE
8
CUTS
10
307.5
20
40.0
11
310.5
21
40.0
0
LINE
8
CUTS
10
310.5
20
40.0
11
310.5
21
31.0
0
LINE
8
CUTS
10
307.5
20
31.0
11
310.5
21
31.0
0
LINE
8
CUTS
10
307.5
20
19.0
11
307.5
21
23.5
0
LINE
8
CUTS
10
307.5
20
23.5
11
300.0
21
23.5
0
LINE
8
CUTS
10
300.0
20
23.5
11
300.0
21
22.45
0
LINE
8
CUTS
10
300.0
20
22.45
11
297.0
21
22.45
0
LINE
8
CUTS
10
297.0
20
22.45
11
297.0
21
23.5
0
LINE
8
CUTS
10
297.0
20
23.5
11
292.5
21
23.5
0
LINE
8
CUTS
10
292.5
20
23.5
11
292.5
21
26.5
0
LINE
8
CUTS
10
300.0
20
26.5
11
300.0
21
27.55
0
LINE
8
CUTS
10
300.0
20
27.55
11
297.0
21
27.55
0
LINE
8
CUTS
10
297.0
20
27.55
11
297.0
21
26.5
0
LINE
8
CUTS
10
297.0
20
26.5
11
292.5
21
26.5
0
LINE
8
CUTS
10
300.0
20
26.5
11
307.5
21
26.5
0
LINE
8
CUTS
10
307.5
20
26.5
11
307.5
21
31.0
0
LINE
8
CUTS
10
307.5
20
60.0
11
310.5
21
60.0
0
LINE
8
CUTS
10
310.5
20
60.0
11
310.5
21
69.0
0
LINE
8
CUTS
10
307.5
20
69.0
11
310.5
21
69.0
0
LINE
8
CUTS
10
307.5
20
90.0
11
310.5
21
90.0
0
LINE
8
CUTS
10
310.5
20
90.0
11
310.5
21
81.0
0
LINE
8
CUTS
10
307.5
20
81.0
11
310.5
21
81.0
0
LINE
8
CUTS
10
307.5
20
69.0
11
307.5
21
73.5
0
LINE
8
CUTS
10
307.5
20
73.5
11
300.0
21
73.5
0
LINE
8
CUTS
10
300.0
20
73.5
11
300.0
21
72.45
0
LINE
8
CUTS
10
300.0
20
72.45
11
297.0
21
72.45
0
LINE
8
CUTS
10
297.0
20
72.45
11
297.0
21
73.5
0
LINE
8
CUTS
10
297.0
20
73.5
11
292.5
21
73.5
0
LINE
8
CUTS
10
292.5
20
73.5
11
292.5
21
76.5
0
LINE
8
CUTS
10
300.0
20
76.5
11
300.0
21
77.55
0
LINE
8
CUTS
10
300.0
20
77.55
11
297.0
21
77.55
0
LINE
8
CUTS
10
297.0
20
77.55
11
297.0
21
76.5
0
LINE
8
CUTS
10
297.0
20
76.5
11
292.5
21
76.5
0
LINE
8
CUTS
10
300.0
20
76.5
11
307.5
21
76.5
0
LINE
8
CUTS
10
307.5
20
76.5
11
307.5
21
81.0
0
LINE
8
CUTS
10
307.5
20
90.0
11
307.5
21
97.0
0
LINE
8
CUTS
10
216.5
20
97.0
11
222.0
21
97.0
0
LINE
8
CUTS
10
252.0
20
97.0
11
272.0
21
97.0
0
LINE
8
CUTS
10
222.0
20
97.0
11
222.0
21
100.0
0
LINE
8
CUTS
10
222.0
20
100.0
11
231.0
21
100.0
0
LINE
8
CUTS
10
231.0
20
97.0
11
231.0
21
100.0
0
LINE
8
CUTS
10
243.0
20
97.0
11
243.0
21
100.0
0
LINE
8
CUTS
10
243.0
20
100.0
11
252.0
21
100.0
0
LINE
8
CUTS
10
252.0
20
97.0
11
252.0
21
100.0
0
LINE
8
CUTS
10
231.0
20
97.0
11
235.5
21
97.0
0
LINE
8
CUTS
10
235.5
20
97.0
11
235.5
21
89.5
0
LINE
8
CUTS
10
235.5
20
89.5
11
234.45
21
89.5
0
LINE
8
CUTS
10
234.45
20
89.5
11
234.45
21
86.5
0
LINE
8
CUTS
10
234.45
20
86.5
11
235.5
21
86.5
0
LINE
8
CUTS
10
235.5
20
86.5
11
235.5
21
82.0
0
LINE
8
CUTS
10
238.5
20
82.0
11
235.5
21
82.0
0
LINE
8
CUTS
10
238.5
20
86.5
11
238.5
21
82.0
0
LINE
8
CUTS
10
239.55
20
86.5
11
238.5
21
86.5
0
LINE
8
CUTS
10
239.55
20
89.5
11
239.55
21
86.5
0
LINE
8
CUTS
10
238.5
20
89.5
11
239.55
21
89.5
0
LINE
8
CUTS
10
238.5
20
89.5
11
238.5
21
97.0
0
LINE
8
CUTS
10
238.5
20
97.0
11
243.0
21
97.0
0
LINE
8
CUTS
10
272.0
20
97.0
11
272.0
21
100.0
0
LINE
8
CUTS
10
272.0
20
100.0
11
281.0
21
100.0
0
LINE
8
CUTS
10
281.0
20
97.0
11
281.0
21
100.0
0
LINE
8
CUTS
10
293.0
20
97.0
11
293.0
21
100.0
0
LINE
8
CUTS
10
293.0
20
100.0
11
302.0
21
100.0
0
LINE
8
CUTS
10
302.0
20
97.0
11
302.0
21
100.0
0
LINE
8
CUTS
10
281.0
20
97.0
11
285.5
21
97.0
0
LINE
8
CUTS
10
285.5
20
97.0
11
285.5
21
89.5
0
LINE
8
CUTS
10
285.5
20
89.5
11
284.45
21
89.5
0
LINE
8
CUTS
10
284.45
20
89.5
11
284.45
21
86.5
0
LINE
8
CUTS
10
284.45
20
86.5
11
285.5
21
86.5
0
LINE
8
CUTS
10
285.5
20
86.5
11
285.5
21
82.0
0
LINE
8
CUTS
10
288.5
20
82.0
11
285.5
21
82.0
0
LINE
8
CUTS
10
288.5
20
86.5
11
288.5
21
82.0
0
LINE
8
CUTS
10
289.55
20
86.5
11
288.5
21
86.5
0
LINE
8
CUTS
10
289.55
20
89.5
11
289.55
21
86.5
0
LINE
8
CUTS
10
288.5
20
89.5
11
289.55
21
89.5
0
LINE
8
CUTS
10
288.5
20
89.5
11
288.5
21
97.0
0
LINE
8
CUTS
10
288.5
20
97.0
11
293.0
21
97.0
0
LINE
8
CUTS
10
302.0
20
97.0
11
307.5
21
97.0
0
LINE
8
CUTS
10
216.5
20
3.0
11
216.5
21
10.0
0
LINE
8
CUTS
10
216.5
20
40.0
11
216.5
21
60.0
0
LINE
8
CUTS
10
216.5
20
10.0
11
213.5
21
10.0
0
LINE
8
CUTS
10
213.5
20
10.0
11
213.5
21
19.0
0
LINE
8
CUTS
10
216.5
20
19.0
11
213.5
21
19.0
0
LINE
8
CUTS
10
216.5
20
40.0
11
213.5
21
40.0
0
LINE
8
CUTS
10
213.5
20
40.0
11
213.5
21
31.0
0
LINE
8
CUTS
10
216.5
20
31.0
11
213.5
21
31.0
0
LINE
8
CUTS
10
216.5
20
19.0
11
216.5
21
23.5
0
LINE
8
CUTS
10
216.5
20
23.5
11
224.0
21
23.5
0
LINE
8
CUTS
10
224.0
20
23.5
11
224.0
21
22.45
0
LINE
8
CUTS
10
224.0
20
22.45
11
227.0
21
22.45
0
LINE
8
CUTS
10
227.0
20
22.45
11
227.0
21
23.5
0
LINE
8
CUTS
10
227.0
20
23.5
11
231.5
21
23.5
0
LINE
8
CUTS
10
231.5
20
23.5
11
231.5
21
26.5
0
LINE
8
CUTS
10
224.0
20
26.5
11
224.0
21
27.55
0
LINE
8
CUTS
10
224.0
20
27.55
11
227.0
21
27.55
0
LINE
8
CUTS
10
227.0
20
27.55
11
227.0
21
26.5
0
LINE
8
CUTS
10
227.0
20
26.5
11
231.5
21
26.5
0
LINE
8
CUTS
10
224.0
20
26.5
11
216.5
21
26.5
0
LINE
8
CUTS
10
216.5
20
26.5
11
216.5
21
31.0
0
LINE
8
CUTS
10
216.5
20
60.0
11
213.5
21
60.0
0
LINE
8
CUTS
10
213.5
20
60.0
11
213.5
21
69.0
0
LINE
8
CUTS
10
216.5
20
69.0
11
213.5
21
69.0
0
LINE
8
CUTS
10
216.5
20
90.0
11
213.5
21
90.0
0
LINE
8
CUTS
10
213.5
20
90.0
11
213.5
21
81.0
0
LINE
8
CUTS
10
216.5
20
81.0
11
213.5
21
81.0
0
LINE
8
CUTS
10
216.5
20
69.0
11
216.5
21
73.5
0
LINE
8
CUTS
10
216.5
20
73.5
11
224.0
21
73.5
0
LINE
8
CUTS
10
224.0
20
73.5
11
224.0
21
72.45
0
LINE
8
CUTS
10
224.0
20
72.45
11
227.0
21
72.45
0
LINE
8
CUTS
10
227.0
20
72.45
11
227.0
21
73.5
0
LINE
8
CUTS
10
227.0
20
73.5
11
231.5
21
73.5
0
LINE
8
CUTS
10
231.5
20
73.5
11
231.5
21
76.5
0
LINE
8
CUTS
10
224.0
20
76.5
11
224.0
21
77.55
0
LINE
8
CUTS
10
224.0
20
77.55
11
227.0
21
77.55
0
LINE
8
CUTS
10
227.0
20
77.55
11
227.0
21
76.5
0
LINE
8
CUTS
10
227.0
20
76.5
11
231.5
21
76.5
0
LINE
8
CUTS
10
224.0
20
76.5
11
216.5
21
76.5
0
LINE
8
CUTS
10
216.5
20
76.5
11
216.5
21
81.0
0
LINE
8
CUTS
10
216.5
20
90.0
11
216.5
21
97.0
0
TEXT
8
TEXT
10
262.0
20
50.0
30
0
40
5
1
front
0
LINE
8
CONSTRUCTION
10
212.0
20
212.0
11
312.0
21
212.0
0
LINE
8
CONSTRUCTION
10
312.0
20
212.0
11
312.0
21
312.0
0
LINE
8
CONSTRUCTION
10
212.0
20
212.0
11
212.0
21
312.0
0
LINE
8
CONSTRUCTION
10
212.0
20
312.0
11
312.0
21
312.0
0
LINE
8
CUTS
10
216.5
20
215.0
11
222.0
21
215.0
0
LINE
8
CUTS
10
252.0
20
215.0
11
272.0
21
215.0
0
LINE
8
CUTS
10
222.0
20
215.0
11
222.0
21
212.0
0
LINE
8
CUTS
10
222.0
20
212.0
11
231.0
21
212.0
0
LINE
8
CUTS
10
231.0
20
215.0
11
231.0
21
212.0
0
LINE
8
CUTS
10
243.0
20
215.0
11
243.0
21
212.0
0
LINE
8
CUTS
10
243.0
20
212.0
11
252.0
21
212.0
0
LINE
8
CUTS
10
252.0
20
215.0
11
252.0
21
212.0
0
LINE
8
CUTS
10
231.0
20
215.0
11
235.5
21
215.0
0
LINE
8
CUTS
10
235.5
20
215.0
11
235.5
21
222.5
0
LINE
8
CUTS
10
235.5
20
222.5
11
234.45
21
222.5
0
LINE
8
CUTS
10
234.45
20
222.5
11
234.45
21
225.5
0
LINE
8
CUTS
10
234.45
20
225.5
11
235.5
21
225.5
0
LINE
8
CUTS
10
235.5
20
225.5
11
235.5
21
230.0
0
LINE
8
CUTS
10
238.5
20
230.0
11
235.5
21
230.0
0
LINE
8
CUTS
10
238.5
20
225.5
11
238.5
21
230.0
0
LINE
8
CUTS
10
239.55
20
225.5
11
238.5
21
225.5
0
LINE
8
CUTS
10
239.55
20
222.5
11
239.55
21
225.5
0
LINE
8
CUTS
10
238.5
20
222.5
11
239.55
21
222.5
0
LINE
8
CUTS
10
238.5
20
222.5
11
238.5
21
215.0
0
LINE
8
CUTS
10
238.5
20
215.0
11
243.0
21
215.0
0
LINE
8
CUTS
10
272.0
20
215.0
11
272.0
21
212.0
0
LINE
8
CUTS
10
272.0
20
212.0
11
281.0
21
212.0
0
LINE
8
CUTS
10
281.0
20
215.0
11
281.0
21
212.0
0
LINE
8
CUTS
10
293.0
20
215.0
11
293.0
21
212.0
0
LINE
8
CUTS
10
293.0
20
212.0
11
302.0
21
212.0
0
LINE
8
CUTS
10
302.0
20
215.0
11
302.0
21
212.0
0
LINE
8
CUTS
10
281.0
20
215.0
11
285.5
21
215.0
0
LINE
8
CUTS
10
285.5
20
215.0
11
285.5
21
222.5
0
LINE
8
CUTS
10
285.5
20
222.5
11
284.45
21
222.5
0
LINE
8
CUTS
10
284.45
20
222.5
11
284.45
21
225.5
0
LINE
8
CUTS
10
284.45
20
225.5
11
285.5
21
225.5
0
LINE
8
CUTS
10
285.5
20
225.5
11
285.5
21
230.0
0
LINE
8
CUTS
10
288.5
20
230.0
11
285.5
21
230.0
0
LINE
8
CUTS
10
288.5
20
225.5
11
288.5
21
230.0
0
LINE
8
CUTS
10
289.55
20
225.5
11
288.5
21
225.5
0
LINE
8
CUTS
10
289.55
20
222.5
11
289.55
21
225.5
0
LINE
8
CUTS
10
288.5
20
222.5
11
289.55
21
222.5
0
LINE
8
CUTS
10
288.5
20
222.5
11
288.5
21
215.0
0
LINE
8
CUTS
10
288.5
20
215.0
11
293.0
21
215.0
0
LINE
8
CUTS
10
302.0
20
215.0
11
307.5
21
215.0
0
LINE
8
CUTS
10
307.5
20
215.0
11
307.5
21
222.0
0
LINE
8
CUTS
10
307.5
20
252.0
11
307.5
21
272.0
0
LINE
8
CUTS
10
307.5
20
222.0
11
310.5
21
222.0
0
LINE
8
CUTS
10
310.5
20
222.0
11
310.5
21
231.0
0
LINE
8
CUTS
10
307.5
20
231.0
11
310.5
21
231.0
0
LINE
8
CUTS
10
307.5
20
252.0
11
310.5
21
252.0
0
LINE
8
CUTS
10
310.5
20
252.0
11
310.5
21
243.0
0
LINE
8
CUTS
10
307.5
20
243.0
11
310.5
21
243.0
0
LINE
8
CUTS
10
307.5
20
231.0
11
307.5
21
235.5
0
LINE
8
CUTS
10
307.5
20
235.5
11
300.0
21
235.5
0
LINE
8
CUTS
10
300.0
20
235.5
11
300.0
21
234.45
0
LINE
8
CUTS
10
300.0
20
234.45
11
297.0
21
234.45
0
LINE
8
CUTS
10
297.0
20
234.45
11
297.0
21
235.5
0
LINE
8
CUTS
10
297.0
20
235.5
11
292.5
21
235.5
0
LINE
8
CUTS
10
292.5
20
235.5
11
292.5
21
238.5
0
LINE
8
CUTS
10
300.0
20
238.5
11
300.0
21
239.55
0
LINE
8
CUTS
10
300.0
20
239.55
11
297.0
21
239.55
0
LINE
8
CUTS
10
297.0
20
239.55
11
297.0
21
238.5
0
LINE
8
CUTS
10
297.0
20
238.5
11
292.5
21
238.5
0
LINE
8
CUTS
10
300.0
20
238.5
11
307.5
21
238.5
0
LINE
8
CUTS
10
307.5
20
238.5
11
307.5
21
243.0
0
LINE
8
CUTS
10
307.5
20
272.0
11
310.5
21
272.0
0
LINE
8
CUTS
10
310.5
20
272.0
11
310.5
21
281.0
0
LINE
8
CUTS
10
307.5
20
281.0
11
310.5
21
281.0
0
LINE
8
CUTS
10
307.5
20
302.0
11
310.5
21
302.0
0
LINE
8
CUTS
10
310.5
20
302.0
11
310.5
21
293.0
0
LINE
8
CUTS
10
307.5
20
293.0
11
310.5
21
293.0
0
LINE
8
CUTS
10
307.5
20
281.0
11
307.5
21
285.5
0
LINE
8
CUTS
10
307.5
20
285.5
11
300.0
21
285.5
0
LINE
8
CUTS
10
300.0
20
285.5
11
300.0
21
284.45
0
LINE
8
CUTS
10
300.0
20
284.45
11
297.0
21
284.45
0
LINE
8
CUTS
10
297.0
20
284.45
11
297.0
21
285.5
0
LINE
8
CUTS
10
297.0
20
285.5
11
292.5
21
285.5
0
LINE
8
CUTS
10
292.5
20
285.5
11
292.5
21
288.5
0
LINE
8
CUTS
10
300.0
20
288.5
11
300.0
21
289.55
0
LINE
8
CUTS
10
300.0
20
289.55
11
297.0
21
289.55
0
LINE
8
CUTS
10
297.0
20
289.55
11
297.0
21
288.5
0
LINE
8
CUTS
10
297.0
20
288.5
11
292.5
21
288.5
0
LINE
8
CUTS
10
300.0
20
288.5
11
307.5
21
288.5
0
LINE
8
CUTS
10
307.5
20
288.5
11
307.5
21
293.0
0
LINE
8
CUTS
10
307.5
20
302.0
11
307.5
21
309.0
0
LINE
8
CUTS
10
216.5
20
309.0
11
222.0
21
309.0
0
LINE
8
CUTS
10
252.0
20
309.0
11
272.0
21
309.0
0
LINE
8
CUTS
10
222.0
20
309.0
11
222.0
21
312.0
0
LINE
8
CUTS
10
222.0
20
312.0
11
231.0
21
312.0
0
LINE
8
CUTS
10
231.0
20
309.0
11
231.0
21
312.0
0
LINE
8
CUTS
10
243.0
20
309.0
11
243.0
21
312.0
0
LINE
8
CUTS
10
243.0
20
312.0
11
252.0
21
312.0
0
LINE
8
CUTS
10
252.0
20
309.0
11
252.0
21
312.0
0
LINE
8
CUTS
10
231.0
20
309.0
11
235.5
21
309.0
0
LINE
8
CUTS
10
235.5
20
309.0
11
235.5
21
301.5
0
LINE
8
CUTS
10
235.5
20
301.5
11
234.45
21
301.5
0
LINE
8
CUTS
10
234.45
20
301.5
11
234.45
21
298.5
0
LINE
8
CUTS
10
234.45
20
298.5
11
235.5
21
298.5
0
LINE
8
CUTS
10
235.5
20
298.5
11
235.5
21
294.0
0
LINE
8
CUTS
10
238.5
20
294.0
11
235.5
21
294.0
0
LINE
8
CUTS
10
238.5
20
298.5
11
238.5
21
294.0
0
LINE
8
CUTS
10
239.55
20
298.5
11
238.5
21
298.5
0
LINE
8
CUTS
10
239.55
20
301.5
11
239.55
21
298.5
0
LINE
8
CUTS
10
238.5
20
301.5
11
239.55
21
301.5
0
LINE
8
CUTS
10
238.5
20
301.5
11
238.5
21
309.0
0
LINE
8
CUTS
10
238.5
20
309.0
11
243.0
21
309.0
0
LINE
8
CUTS
10
272.0
20
309.0
11
272.0
21
312.0
0
LINE
8
CUTS
10
272.0
20
312.0
11
281.0
21
312.0
0
LINE
8
CUTS
10
281.0
20
309.0
11
281.0
21
312.0
0
LINE
8
CUTS
10
293.0
20
309.0
11
293.0
21
312.0
0
LINE
8
CUTS
10
293.0
20
312.0
11
302.0
21
312.0
0
LINE
8
CUTS
10
302.0
20
309.0
11
302.0
21
312.0
0
LINE
8
CUTS
10
281.0
20
309.0
11
285.5
21
309.0
0
LINE
8
CUTS
10
285.5
20
309.0
11
285.5
21
301.5
0
LINE
8
CUTS
10
285.5
20
301.5
11
284.45
21
301.5
0
LINE
8
CUTS
10
284.45
20
301.5
11
284.45
21
298.5
0
LINE
8
CUTS
10
284.45
20
298.5
11
285.5
21
298.5
0
LINE
8
CUTS
10
285.5
20
298.5
11
285.5
21
294.0
0
LINE
8
CUTS
10
288.5
20
294.0
11
285.5
21
294.0
0
LINE
8
CUTS
10
288.5
20
298.5
11
288.5
21
294.0
0
LINE
8
CUTS
10
289.55
20
298.5
11
288.5
21
298.5
0
LINE
8
CUTS
10
289.55
20
301.5
11
289.55
21
298.5
0
LINE
8
CUTS
10
288.5
20
301.5
11
289.55
21
301.5
0
LINE
8
CUTS
10
288.5
20
301.5
11
288.5
21
309.0
0
LINE
8
CUTS
10
288.5
20
309.0
11
293.0
21
309.0
0
LINE
8
CUTS
10
302.0
20
309.0
11
307.5
21
309.0
0
LINE
8
CUTS
10
216.5
20
215.0
11
216.5
21
222.0
0
LINE
8
CUTS
10
216.5
20
252.0
11
216.5
21
272.0
0
LINE
8
CUTS
10
216.5
20
222.0
11
213.5
21
222.0
0
LINE
8
CUTS
10
213.5
20
222.0
11
213.5
21
231.0
0
LINE
8
CUTS
10
216.5
20
231.0
11
213.5
21
231.0
0
LINE
8
CUTS
10
216.5
20
252.0
11
213.5
21
252.0
0
LINE
8
CUTS
10
213.5
20
252.0
11
213.5
21
243.0
0
LINE
8
CUTS
10
216.5
20
243.0
11
213.5
21
243.0
0
LINE
8
CUTS
10
216.5
20
231.0
11
216.5
21
235.5
0
LINE
8
CUTS
10
216.5
20
235.5
11
224.0
21
235.5
0
LINE
8
CUTS
10
224.0
20
235.5
11
224.0
21
234.45
0
LINE
8
CUTS
10
224.0
20
234.45
11
227.0
21
234.45
0
LINE
8
CUTS
10
227.0
20
234.45
11
227.0
21
235.5
0
LINE
8
CUTS
10
227.0
20
235.5
11
231.5
21
235.5
0
LINE
8
CUTS
10
231.5
20
235.5
11
231.5
21
238.5
0
LINE
8
CUTS
10
224.0
20
238.5
11
224.0
21
239.55
0
LINE
8
CUTS
10
224.0
20
239.55
11
227.0
21
239.55
0
LINE
8
CUTS
10
227.0
20
239.55
11
227.0
21
238.5
0
LINE
8
CUTS
10
227.0
20
238.5
11
231.5
21
238.5
0
LINE
8
CUTS
10
224.0
20
238.5
11
216.5
21
238.5
0
LINE
8
CUTS
10
216.5
20
238.5
11
216.5
21
243.0
0
LINE
8
CUTS
10
216.5
20
272.0
11
213.5
21
272.0
0
LINE
8
CUTS
10
213.5
20
272.0
11
213.5
21
281.0
0
LINE
8
CUTS
10
216.5
20
281.0
11
213.5
21
281.0
0
LINE
8
CUTS
10
216.5
20
302.0
11
213.5
21
302.0
0
LINE
8
CUTS
10
213.5
20
302.0
11
213.5
21
293.0
0
LINE
8
CUTS
10
216.5
20
293.0
11
213.5
21
293.0
0
LINE
8
CUTS
10
216.5
20
281.0
11
216.5
21
285.5
0
LINE
8
CUTS
10
216.5
20
285.5
11
224.0
21
285.5
0
LINE
8
CUTS
10
224.0
20
285.5
11
224.0
21
284.45
0
LINE
8
CUTS
10
224.0
20
284.45
11
227.0
21
284.45
0
LINE
8
CUTS
10
227.0
20
284.45
11
227.0
21
285.5
0
LINE
8
CUTS
10
227.0
20
285.5
11
231.5
21
285.5
0
LINE
8
CUTS
10
231.5
20
285.5
11
231.5
21
288.5
0
LINE
8
CUTS
10
224.0
20
288.5
11
224.0
21
289.55
0
LINE
8
CUTS
10
224.0
20
289.55
11
227.0
21
289.55
0
LINE
8
CUTS
10
227.0
20
289.55
11
227.0
21
288.5
0
LINE
8
CUTS
10
227.0
20
288.5
11
231.5
21
288.5
0
LINE
8
CUTS
10
224.0
20
288.5
11
216.5
21
288.5
0
LINE
8
CUTS
10
216.5
20
288.5
11
216.5
21
293.0
0
LINE
8
CUTS
10
216.5
20
302.0
11
216.5
21
309.0
0
TEXT
8
TEXT
10
262.0
20
262.0
30
0
40
5
1
back
0
ENDSEC
0
EOF
